# xmcd
#
# Track frame offsets: 
#        150
#        13455
#        23141
#        34057
#        46235
#        57400
#        67701
#        77828
#        91437
#        102486
#        113290
#        127430
#        140097
#        150957
#        162390
#        173944
#        186270
#        197480
#        210321
#        222537
#        232393
#        242332
#        254885
#        265917
#        276917
#        285263
#        297180
#        310907
#        325773
#        334993
#        347570
#
# Disc length: 4753 seconds
#
# Revision: 0
# Processed by: cddbd v1.5.1PL2 Copyright (c) Steve Scherf et al.
# Submitted via: ExactAudioCopy v0.95b3
#
DISCID=d7128f1f
DTITLE=Roy Orbison - Grand Collection
DYEAR=1900
DGENRE=Blues
TTITLE0=Oh, Pretty Woman
TTITLE1=Ooby Dooby
TTITLE2=Mean Woman Blues
TTITLE3=Dance
TTITLE4=Sunset
TTITLE5=Lana
TTITLE6=Bye-Bye Love
TTITLE7=The Great Pretender
TTITLE8=Love Hurts
TTITLE9=All I Have To Do Is Dream
TTITLE10=(I'd Be) A Legend In My Time
TTITLE11=In Dreams
TTITLE12=Only The Lonely
TTITLE13=Dream Baby
TTITLE14=Let The Good Times Roll
TTITLE15=I Can't Stop Loving You
TTITLE16=Goodnight
TTITLE17=Blue Angel
TTITLE18=I`m Hurtin'
TTITLE19=Night Life
TTITLE20=Running Scared
TTITLE21=Crying
TTITLE22=Loneliness
TTITLE23=Come Back To Me (My Love)
TTITLE24=Raindrops
TTITLE25=(I Get So) Sentimental
TTITLE26=Days
TTITLE27=Yo Te Amo Maria
TTITLE28=Wedding Day
TTITLE29=It's Over
TTITLE30=Uptown
EXTD=
EXTT0=
EXTT1=
EXTT2=
EXTT3=
EXTT4=
EXTT5=
EXTT6=
EXTT7=
EXTT8=
EXTT9=
EXTT10=
EXTT11=
EXTT12=
EXTT13=
EXTT14=
EXTT15=
EXTT16=
EXTT17=
EXTT18=
EXTT19=
EXTT20=
EXTT21=
EXTT22=
EXTT23=
EXTT24=
EXTT25=
EXTT26=
EXTT27=
EXTT28=
EXTT29=
EXTT30=
PLAYORDER=
